<?xml version="1.0" encoding="utf-8"?>
<!-- Generator: Adobe Illustrator 16.0.4, SVG Export Plug-In . SVG Version: 6.00 Build 0)  -->
<!DOCTYPE svg PUBLIC "-//W3C//DTD SVG 1.1//EN" "http://www.w3.org/Graphics/SVG/1.1/DTD/svg11.dtd">
<svg version="1.1" id="Layer_1" xmlns="http://www.w3.org/2000/svg" xmlns:xlink="http://www.w3.org/1999/xlink" x="0px" y="0px"
	 width="344.6px" height="344.6px" viewBox="0 0 344.6 344.6" enable-background="new 0 0 344.6 344.6" xml:space="preserve">
<path fill="#FFFFFF" d="M172.3,0C77.1,0,0,77.1,0,172.3c0,95.2,77.1,172.3,172.3,172.3c95.1,0,172.3-77.1,172.3-172.3
	C344.6,77.1,267.4,0,172.3,0z M172.7,112.6l-14.5,103.1c-0.301,2.1-2.301,3.8-4.4,3.699l-16.7-0.899c-2.1-0.101-3.6-1.899-3.3-4.101
	l4.4-31.5H112.6l-2,14.301c-0.3,2.1-2.3,3.8-4.399,3.699L89.5,200c-2.101-0.101-3.601-1.899-3.3-4.101l1.8-13H69.6
	c-2.1,0-3.7-1.699-3.399-3.899l1.6-12.1c0.3-2.1,2.3-3.9,4.4-3.9H90.6l4.7-33.2c0.3-2.1,2.3-3.8,4.4-3.7L116.4,127
	c2.101,0.1,3.601,1.9,3.301,4.1l-4.5,31.9h25.6l7.3-51.7c0.3-2.1,2.3-3.8,4.4-3.7l16.7,0.9C171.5,108.6,173,110.5,172.7,112.6z
	 M268.6,141.1L266.7,158c-0.2,2.1-2.2,3.9-4.301,3.9h-46l-3.199,22.6H231.9c2.101,0,3.7,1.7,3.4,3.899l-1.5,12.101
	c-0.3,2.101-2.2,3.899-4.4,3.899H210.5l-5.8,41.201c-0.301,2.1-2.301,3.799-4.4,3.699l-16.7-0.9c-2.1-0.1-3.6-1.899-3.3-4.1
	l14.5-103.1c0-0.1,0-0.1,0.1-0.2c0.101-2,1.801-3.6,3.9-3.6h66.6C267.3,137.2,268.8,139,268.6,141.1z"/>
</svg>
