<?xml version="1.0" encoding="utf-8"?>
<!-- Generator: Adobe Illustrator 16.0.4, SVG Export Plug-In . SVG Version: 6.00 Build 0)  -->
<!DOCTYPE svg PUBLIC "-//W3C//DTD SVG 1.1//EN" "http://www.w3.org/Graphics/SVG/1.1/DTD/svg11.dtd">
<svg version="1.1" xmlns="http://www.w3.org/2000/svg" xmlns:xlink="http://www.w3.org/1999/xlink" x="0px" y="0px" width="34px"
	 height="34px" viewBox="0 0 34 34" enable-background="new 0 0 34 34" xml:space="preserve">
<g id="Capa_2">
</g>
<g id="Capa_1">
	<g>
		<path fill="#FFFFFF" d="M15.6,8.469c0.641,0.895,0.963,1.962,0.963,3.208c0,1.28-0.322,2.312-0.971,3.094
			c-0.365,0.436-0.897,0.836-1.604,1.194c1.072,0.393,1.88,1.012,2.429,1.857c0.545,0.843,0.818,1.872,0.818,3.078
			c0,1.246-0.311,2.364-0.938,3.35c-0.396,0.656-0.893,1.209-1.487,1.654c-0.67,0.515-1.459,0.864-2.372,1.056
			c-0.914,0.191-1.901,0.283-2.97,0.283H0V6.228h10.153C12.717,6.267,14.53,7.013,15.6,8.469z M4.189,9.878v4.637h5.108
			c0.91,0,1.652-0.174,2.224-0.521c0.566-0.347,0.854-0.964,0.854-1.845c0-0.981-0.377-1.626-1.129-1.942
			c-0.649-0.219-1.478-0.328-2.482-0.328H4.189z M4.189,17.992v5.603H9.29c0.912,0,1.623-0.123,2.128-0.369
			c0.924-0.459,1.383-1.331,1.383-2.622c0-1.095-0.443-1.847-1.338-2.257c-0.499-0.227-1.2-0.347-2.101-0.354H4.189z M29.938,12.02
			c1.085,0.484,1.979,1.252,2.682,2.3c0.643,0.922,1.055,1.993,1.242,3.212c0.109,0.712,0.154,1.743,0.135,3.084H22.677
			c0.066,1.56,0.604,2.653,1.626,3.278c0.621,0.39,1.366,0.585,2.241,0.585c0.922,0,1.675-0.238,2.253-0.712
			c0.318-0.256,0.598-0.613,0.838-1.07h4.148c-0.109,0.922-0.613,1.858-1.506,2.812c-1.392,1.509-3.34,2.265-5.845,2.265
			c-2.069,0-3.895-0.635-5.472-1.911c-1.586-1.275-2.372-3.351-2.372-6.22c0-2.694,0.713-4.758,2.138-6.196
			c1.429-1.436,3.279-2.155,5.556-2.155C27.635,11.29,28.854,11.534,29.938,12.02z M23.859,15.53
			c-0.573,0.591-0.935,1.394-1.083,2.405h7.003c-0.074-1.08-0.438-1.896-1.082-2.456c-0.652-0.559-1.454-0.838-2.413-0.838
			C25.244,14.642,24.434,14.938,23.859,15.53z M30.729,7.208h-9.004v2.615h9.004V7.208z"/>
	</g>
</g>
</svg>
