<?xml version="1.0" encoding="utf-8"?>
<!-- Generator: Adobe Illustrator 16.0.4, SVG Export Plug-In . SVG Version: 6.00 Build 0)  -->
<!DOCTYPE svg PUBLIC "-//W3C//DTD SVG 1.1//EN" "http://www.w3.org/Graphics/SVG/1.1/DTD/svg11.dtd">
<svg version="1.1" xmlns="http://www.w3.org/2000/svg" xmlns:xlink="http://www.w3.org/1999/xlink" x="0px" y="0px" width="34px"
	 height="34px" viewBox="0 0 34 34" enable-background="new 0 0 34 34" xml:space="preserve">
<g id="Capa_2">
</g>
<g id="Capa_1">
	<path fill="#FFFFFF" d="M34,7.294c-1.25,0.555-2.596,0.929-4.006,1.099c1.441-0.863,2.547-2.231,3.066-3.859
		c-1.348,0.8-2.839,1.378-4.431,1.69c-1.269-1.354-3.083-2.202-5.091-2.202c-3.851,0-6.973,3.125-6.973,6.977
		c0,0.548,0.059,1.078,0.179,1.589C10.948,12.294,5.81,9.521,2.367,5.296C1.767,6.33,1.423,7.529,1.423,8.808
		c0,2.417,1.231,4.555,3.104,5.806c-1.143-0.035-2.22-0.351-3.161-0.871v0.086c0,3.381,2.404,6.201,5.597,6.841
		c-0.585,0.162-1.201,0.245-1.839,0.245c-0.449,0-0.887-0.041-1.312-0.123c0.887,2.769,3.462,4.788,6.515,4.843
		c-2.387,1.871-5.395,2.985-8.662,2.985c-0.563,0-1.12-0.03-1.665-0.095c3.087,1.978,6.754,3.133,10.692,3.133
		c12.833,0,19.847-10.628,19.847-19.85c0-0.304-0.006-0.605-0.019-0.903C31.883,9.92,33.067,8.692,34,7.294"/>
</g>
</svg>
