<?xml version="1.0" encoding="utf-8"?>
<!-- Generator: Adobe Illustrator 16.0.4, SVG Export Plug-In . SVG Version: 6.00 Build 0)  -->
<!DOCTYPE svg PUBLIC "-//W3C//DTD SVG 1.1//EN" "http://www.w3.org/Graphics/SVG/1.1/DTD/svg11.dtd">
<svg version="1.1" xmlns="http://www.w3.org/2000/svg" xmlns:xlink="http://www.w3.org/1999/xlink" x="0px" y="0px" width="34px"
	 height="34px" viewBox="0 0 34 34" enable-background="new 0 0 34 34" xml:space="preserve">
<g id="Capa_2">
</g>
<g id="Capa_1">
	<path fill-rule="evenodd" clip-rule="evenodd" fill="#FFFFFF" d="M33.654,13.577c-0.222-1.093-0.558-2.168-0.991-3.196
		c-0.425-1.008-0.954-1.979-1.568-2.889c-0.607-0.9-1.307-1.745-2.074-2.515c-0.77-0.77-1.616-1.468-2.516-2.074
		c-0.908-0.616-1.88-1.142-2.888-1.57c-1.026-0.431-2.102-0.769-3.194-0.99C19.303,0.113,18.152-0.004,17-0.004
		c-1.152,0-2.304,0.117-3.425,0.347c-1.091,0.222-2.167,0.56-3.193,0.99c-1.008,0.429-1.98,0.954-2.889,1.57
		c-0.9,0.606-1.746,1.305-2.516,2.074C4.21,5.747,3.513,6.592,2.905,7.492c-0.614,0.909-1.143,1.881-1.568,2.889
		c-0.435,1.028-0.768,2.104-0.991,3.196C0.116,14.695,0,15.849,0,17c0,1.153,0.116,2.308,0.346,3.426
		c0.223,1.092,0.557,2.167,0.991,3.194c0.425,1.007,0.954,1.981,1.568,2.89c0.608,0.899,1.305,1.745,2.073,2.514
		c0.77,0.77,1.615,1.467,2.516,2.076c0.909,0.611,1.881,1.142,2.889,1.567c1.026,0.436,2.102,0.768,3.193,0.99
		c1.121,0.231,2.272,0.347,3.425,0.347c1.151,0,2.303-0.115,3.423-0.347c1.092-0.223,2.168-0.555,3.194-0.99
		c1.008-0.426,1.98-0.956,2.888-1.567c0.9-0.609,1.746-1.307,2.516-2.076c0.768-0.769,1.467-1.614,2.074-2.514
		c0.614-0.908,1.143-1.883,1.568-2.89c0.433-1.027,0.77-2.103,0.991-3.194C33.884,19.308,34,18.153,34,17
		C34,15.849,33.884,14.695,33.654,13.577z M31.514,16.855c-0.21-0.047-5.124-1.104-10.112-0.476
		c-0.102-0.249-0.207-0.499-0.313-0.749c-0.303-0.71-0.627-1.414-0.965-2.105c5.734-2.343,8.061-5.709,8.088-5.75
		C30.248,10.252,31.479,13.409,31.514,16.855z M26.59,6.103c-0.036,0.057-2.105,3.204-7.585,5.258
		C16.524,6.8,13.797,3.179,13.579,2.89C14.676,2.624,15.821,2.479,17,2.479C20.676,2.479,24.031,3.849,26.59,6.103z M13.523,2.9
		c-0.001,0.003-0.003,0.005-0.003,0.005s-0.017,0.004-0.044,0.009C13.492,2.909,13.507,2.906,13.523,2.9z M10.806,3.866
		c0.193,0.261,2.877,3.9,5.391,8.368c-6.971,1.853-13.021,1.779-13.404,1.773C3.735,9.51,6.757,5.781,10.806,3.866z M2.482,17
		c0-0.156,0.007-0.307,0.012-0.459c0.256,0.006,7.43,0.168,14.905-2.068c0.416,0.813,0.814,1.641,1.178,2.468
		c-0.193,0.055-0.382,0.109-0.571,0.173c-7.835,2.533-11.809,9.584-11.809,9.584l0.004,0.008C3.89,24.131,2.482,20.73,2.482,17z
		 M17,31.522c-3.515,0-6.736-1.252-9.249-3.328c0.191,0.155,0.325,0.254,0.325,0.254s2.783-6.071,11.393-9.071
		c0.033-0.011,0.065-0.02,0.097-0.031c2.042,5.309,2.886,9.756,3.101,11.025C20.927,31.113,19.01,31.522,17,31.522z M25.113,29.043
		c-0.148-0.876-0.921-5.138-2.827-10.372c4.688-0.75,8.749,0.537,9.05,0.637C30.688,23.352,28.373,26.843,25.113,29.043z"/>
</g>
</svg>
