<?xml version="1.0" encoding="utf-8"?>
<!-- Generator: Adobe Illustrator 16.0.4, SVG Export Plug-In . SVG Version: 6.00 Build 0)  -->
<!DOCTYPE svg PUBLIC "-//W3C//DTD SVG 1.1//EN" "http://www.w3.org/Graphics/SVG/1.1/DTD/svg11.dtd">
<svg version="1.1" xmlns="http://www.w3.org/2000/svg" xmlns:xlink="http://www.w3.org/1999/xlink" x="0px" y="0px" width="34px"
	 height="34px" viewBox="0 0 34 34" enable-background="new 0 0 34 34" xml:space="preserve">
<g id="Capa_2">
</g>
<g id="Capa_1">
	<path fill-rule="evenodd" clip-rule="evenodd" fill="#FFFFFF" d="M16.998,0.42C7.613,0.42,0,8.03,0,17.422
		c0,7.51,4.87,13.881,11.627,16.13c0.849,0.156,1.16-0.368,1.16-0.82c0-0.403-0.015-1.471-0.023-2.89
		c-4.729,1.026-5.727-2.277-5.727-2.277c-0.773-1.966-1.887-2.488-1.887-2.488c-1.543-1.058,0.117-1.033,0.117-1.033
		c1.707,0.12,2.604,1.75,2.604,1.75c1.516,2.6,3.979,1.85,4.948,1.414c0.155-1.101,0.594-1.848,1.08-2.273
		c-3.775-0.428-7.744-1.889-7.744-8.403c0-1.855,0.663-3.371,1.75-4.561C7.728,11.538,7.146,9.811,8.07,7.473
		c0,0,1.427-0.458,4.675,1.743c1.355-0.379,2.811-0.568,4.256-0.574c1.443,0.006,2.898,0.195,4.255,0.574
		c3.247-2.201,4.672-1.743,4.672-1.743c0.927,2.338,0.343,4.065,0.169,4.497c1.089,1.189,1.748,2.705,1.748,4.561
		c0,6.532-3.975,7.968-7.762,8.392c0.609,0.522,1.154,1.56,1.154,3.146c0,2.273-0.02,4.107-0.02,4.663
		c0,0.454,0.305,0.984,1.167,0.818C29.134,31.297,34,24.93,34,17.422C34,8.03,26.388,0.42,16.998,0.42z"/>
</g>
</svg>
