<?xml version="1.0" encoding="utf-8"?>
<!-- Generator: Adobe Illustrator 16.0.4, SVG Export Plug-In . SVG Version: 6.00 Build 0)  -->
<!DOCTYPE svg PUBLIC "-//W3C//DTD SVG 1.1//EN" "http://www.w3.org/Graphics/SVG/1.1/DTD/svg11.dtd">
<svg version="1.1" xmlns="http://www.w3.org/2000/svg" xmlns:xlink="http://www.w3.org/1999/xlink" x="0px" y="0px" width="34px"
	 height="34px" viewBox="0 0 34 34" enable-background="new 0 0 34 34" xml:space="preserve">
<g id="Capa_2">
</g>
<g id="Capa_1">
	<path fill="#FFFFFF" d="M27.429-0.003H6.571C2.948-0.003,0,2.944,0,6.567v6.943v13.922c0,3.623,2.948,6.57,6.571,6.57h20.857
		c3.623,0,6.571-2.947,6.571-6.57V13.511V6.567C34,2.944,31.052-0.003,27.429-0.003z M29.314,3.917l0.752-0.004v0.75v5.016
		l-5.745,0.018l-0.02-5.764L29.314,3.917z M12.148,13.511c1.088-1.51,2.854-2.498,4.852-2.498s3.764,0.988,4.852,2.498
		c0.71,0.984,1.134,2.186,1.134,3.488c0,3.301-2.687,5.986-5.985,5.986s-5.983-2.686-5.983-5.986
		C11.017,15.696,11.44,14.495,12.148,13.511z M30.688,27.433c0,1.795-1.461,3.258-3.259,3.258H6.571
		c-1.798,0-3.259-1.463-3.259-3.258V13.511h5.076c-0.439,1.078-0.686,2.254-0.686,3.488c0,5.127,4.17,9.301,9.297,9.301
		s9.297-4.174,9.297-9.301c0-1.234-0.248-2.41-0.686-3.488h5.076V27.433z"/>
</g>
</svg>
