<?xml version="1.0" encoding="utf-8"?>
<!-- Generator: Adobe Illustrator 16.0.4, SVG Export Plug-In . SVG Version: 6.00 Build 0)  -->
<!DOCTYPE svg PUBLIC "-//W3C//DTD SVG 1.1//EN" "http://www.w3.org/Graphics/SVG/1.1/DTD/svg11.dtd">
<svg version="1.1" xmlns="http://www.w3.org/2000/svg" xmlns:xlink="http://www.w3.org/1999/xlink" x="0px" y="0px" width="34px"
	 height="34px" viewBox="0 0 34 34" enable-background="new 0 0 34 34" xml:space="preserve">
<g id="Capa_2">
</g>
<g id="Capa_1">
	<path fill="#FFFFFF" d="M7.485,32.612H0.857V11.399h6.628V32.612z M4.001,8.745H3.953C1.555,8.745,0,7.124,0,5.071
		c0-2.098,1.602-3.684,4.048-3.684c2.444,0,3.948,1.582,3.996,3.678C8.044,7.118,6.492,8.745,4.001,8.745z M34,32.612h-7.515V21.636
		c0-2.873-1.174-4.834-3.76-4.834c-1.978,0-3.076,1.322-3.588,2.598c-0.191,0.457-0.162,1.094-0.162,1.734v11.479H11.53
		c0,0,0.097-19.445,0-21.213h7.445v3.33c0.44-1.457,2.818-3.535,6.616-3.535c4.708,0,8.409,3.053,8.409,9.623V32.612z"/>
</g>
</svg>
