<?xml version="1.0" encoding="utf-8"?>
<!-- Generator: Adobe Illustrator 16.0.4, SVG Export Plug-In . SVG Version: 6.00 Build 0)  -->
<!DOCTYPE svg PUBLIC "-//W3C//DTD SVG 1.1//EN" "http://www.w3.org/Graphics/SVG/1.1/DTD/svg11.dtd">
<svg version="1.1" xmlns="http://www.w3.org/2000/svg" xmlns:xlink="http://www.w3.org/1999/xlink" x="0px" y="0px" width="34px"
	 height="34px" viewBox="0 0 34 34" enable-background="new 0 0 34 34" xml:space="preserve">
<g id="Capa_2">
</g>
<g id="Capa_1">
	<path fill="#FFFFFF" d="M30.107,3.963H3.893C1.745,3.963,0,5.71,0,7.855v18.02c0,2.146,1.745,3.893,3.893,3.893h26.215
		c2.147,0,3.893-1.747,3.893-3.893V7.855C34,5.71,32.255,3.963,30.107,3.963z M31.728,8.182v13.789l-8.432-6.622L31.728,8.182z
		 M30.107,6.235c0.115,0,0.217,0.043,0.324,0.064L17.994,16.875c-0.445,0.352-0.771,0.352-1.01,0.352c-0.221,0-0.557,0-0.947-0.307
		L3.568,6.3c0.107-0.021,0.209-0.064,0.324-0.064H30.107z M10.526,15.21l-8.254,6.716V8.184L10.526,15.21z M30.107,27.495H3.893
		c-0.892,0-1.62-0.729-1.62-1.62v-1.02l10.013-8.146l2.312,1.97c1.041,0.82,2.021,0.82,2.388,0.82c0.369,0,1.347,0,2.448-0.865
		l2.099-1.782l10.196,8.006v1.018C31.728,26.767,30.999,27.495,30.107,27.495z"/>
</g>
</svg>
